# xmcd
#
# Track frame offsets:
#	182
#	8850
#	20337
#	33550
#	46400
#	61537
#	72425
#	85045
#	99520
#	117150
#	129975
#	143387
#	156875
#	173207
#	187450
#	199950
#	212825
#	226147
#	233375
#	247667
#	259125
#	273017
#	287925
#	302497
#
# Disc length: 4227 seconds
#
# Revision: 3
# Processed by: cddbd v1.5.1PL2 Copyright (c) Steve Scherf et al.
# Submitted via: audiograbber 1.83.01
#
DISCID=3f108118
DTITLE=George Gershwin - The Grat American Composers
DYEAR=1900
DGENRE=
TTITLE0=Swanee - Al Johnson
TTITLE1=Love Walked In - Dick Hymes
TTITLE2=Embraceable You - Al Johnson
TTITLE3=Liza - Chick Webb and Orchestra
TTITLE4=How Long Has This Been Going On - Peggy Lee
TTITLE5=Nice Work If You Can Get It - Tommy Dorsey
TTITLE6=Someone To Watch Over Me - Fats Waller and Lee Wiley
TTITLE7=I Got Rhythm - Fats Waller and Orchestra
TTITLE8=The Man I Love - Helen Forrest with Benny Goodman
TTITLE9=They All Laughed - Fred Astaire
TTITLE10=Summertime - Billie Holiday
TTITLE11=I Was Doing Allright - Ella Fitzgerald
TTITLE12=They Can't Take That Away From Me - Carmen McCrae
TTITLE13=Oh, Lady Be Good - Artie Shaw and Orchestra
TTITLE14=Fascinating Rhythm - Buddy Lee and The Giltedged Four
TTITLE15=Somebody Loves Me - Benny Carter and Orchestra
TTITLE16=A Foggy Day - Cyril Grantham with Geraldo and Orchestra
TTITLE17='is Wonderful - Doris Day
TTITLE18=But Not For Me - Judy Garland
TTITLE19=Shall We Dance- - Fred Astaire
TTITLE20=Rhapsody In Blue - Glernn Miller
TTITLE21=I've Got A Crush On You - Lee Wiley
TTITLE22=The Man I Love - Artie Shaw
TTITLE23=Kickin' The Clouds Away - George Gershwin
EXTD=
EXTT0=
EXTT1=
EXTT2=
EXTT3=
EXTT4=
EXTT5=
EXTT6=
EXTT7=
EXTT8=
EXTT9=
EXTT10=
EXTT11=
EXTT12=
EXTT13=
EXTT14=
EXTT15=
EXTT16=
EXTT17=
EXTT18=
EXTT19=
EXTT20=
EXTT21=
EXTT22=
EXTT23=
PLAYORDER=
